<svg xmlns="http://www.w3.org/2000/svg" width="72" height="73" viewBox="0 0 72 73">
  <g fill="none" fill-rule="evenodd">
    <path fill="#FBF8F1" d="M72.0004333,36.2315103 C72.0004333,56.1146517 55.8835747,72.2315103 36.0004333,72.2315103 C16.1172919,72.2315103 0.000433323698,56.1146517 0.000433323698,36.2315103 C0.000433323698,16.348369 16.1172919,0.231510334 36.0004333,0.231510334 C55.8835747,0.231510334 72.0004333,16.348369 72.0004333,36.2315103"/>
    <g transform="translate(15 17)">
      <path fill="#FBE184" d="M19.9062794,0.78 C9.35195851,0.527058824 0.718706042,9.16235294 0.718706042,19.8520588 L0.718706042,19.8858824 C0.720150454,20.9241176 1.66479611,21.6697059 2.66866268,21.4902941 C3.33887,21.3697059 4.03796557,21.33 4.75294967,21.3770588 C9.0572984,21.6667647 12.5339989,25.2358824 12.7824378,29.6211765 C12.8951019,31.5873529 12.3693359,33.4226471 11.3986908,34.9373529 C10.8339256,35.8197059 11.171918,36.9947059 12.1237858,37.4079412 C14.3756246,38.3844118 16.8527917,38.9270588 19.4556227,38.9270588 C29.9536115,38.9270588 38.4352007,30.1373529 38.1853174,19.3917647 C37.952767,9.27117647 29.846725,1.01823529 19.9062794,0.78"/>
      <path fill="#FBF8F1" d="M22.9064682 32.6532353C22.9064682 34.5929412 21.360947 36.1679412 19.4543228 36.1679412 17.5476985 36.1679412 16.0036217 34.5929412 16.0036217 32.6532353 16.0036217 30.7120588 17.5476985 29.1385294 19.4543228 29.1385294 21.360947 29.1385294 22.9064682 30.7120588 22.9064682 32.6532353M12.5516207 13.8270588C12.5516207 15.7682353 11.0075439 17.3417647 9.09947524 17.3417647 7.19429538 17.3417647 5.64877419 15.7682353 5.64877419 13.8270588 5.64877419 11.8873529 7.19429538 10.3123529 9.09947524 10.3123529 11.0075439 10.3123529 12.5516207 11.8873529 12.5516207 13.8270588M22.9064682 6.79867647C22.9064682 8.73985294 21.360947 10.3133824 19.4543228 10.3133824 17.5476985 10.3133824 16.0036217 8.73985294 16.0036217 6.79867647 16.0036217 4.85897059 17.5476985 3.28397059 19.4543228 3.28397059 21.360947 3.28397059 22.9064682 4.85897059 22.9064682 6.79867647"/>
      <path fill="#FAFAFA" d="M41.4242676,3.65794118 L27.2531382,18.1226471 L24.1707623,14.7123529 L39.5754198,1.48294118 C41.5759309,-0.0847058824 43.0015658,2.09029412 41.4242676,3.65794118"/>
      <path stroke="#FBE184" stroke-width="1.469" d="M41.4242676,3.65794118 L27.2531382,18.1226471 L24.1707623,14.7123529 L39.5754198,1.48294118 C41.5759309,-0.0847058824 43.0015658,2.09029412 41.4242676,3.65794118 Z"/>
      <path fill="#FAFAFA" d="M26.7009394,21.8048529 C24.2512161,23.5651471 20.9189569,24.6901471 17.3223702,24.5842647 C18.264127,23.0842647 19.2145503,21.2798529 19.2752156,19.1416176 C19.3286589,17.3107353 19.969978,15.8033824 21.5039439,14.6254412 C23.9551116,12.8651471 26.0177324,14.1475 26.9002683,14.7842647 C28.0731311,15.7342647 28.6393407,16.9739706 28.5960084,18.5004412 C28.5613425,19.7210294 27.9272455,20.9239706 26.7009394,21.8048529"/>
    </g>
  </g>
</svg>
