<svg xmlns="http://www.w3.org/2000/svg" width="72" height="72" viewBox="0 0 72 72">
  <g fill="none" fill-rule="evenodd">
    <path fill="#F7F7FE" d="M72,36 C72,55.8813913 55.8813913,72 36,72 C16.1186087,72 0,55.8813913 0,36 C0,16.1186087 16.1186087,0 36,0 C55.8813913,0 72,16.1186087 72,36"/>
    <path fill="#B5A5EB" d="M53.3033217,38.0969565 C52.8165391,36.991913 52.2342783,35.9369565 51.4954957,34.9477391 C51.4970609,34.9164348 51.4219304,34.8538261 51.4219304,34.8538261 C51.0650609,34.3873913 50.6737565,33.9350435 50.2495826,33.499913 C51.8132348,31.6310435 52.5332348,27.5254783 50.316887,25.3075652 C48.2414087,23.2352174 44.6554957,23.4230435 42.6520174,24.9006087 C42.6081913,24.5531304 42.5878435,24.2009565 42.5956696,23.8472174 C42.5956696,22.9362609 42.6974087,22.260087 42.9055826,21.7764348 C44.0278435,21.223913 44.7384522,20.5007826 44.7384522,19.6164348 C44.7384522,17.371913 40.1711478,16.162 35.8746261,16.162 C31.5781043,16.162 27.0108,17.371913 27.0108,19.6164348 C27.0108,20.5383478 27.780887,21.2833913 28.9845391,21.8453043 L29.1191478,22.1129565 C29.2240174,22.3993913 29.3101043,22.6310435 29.3586261,23.0677391 C29.4149739,23.7141739 29.3758435,24.3621739 29.2584522,24.9976522 C27.2268,23.7094783 23.612713,23.2774783 21.5826261,25.3075652 C20.5323652,26.3578261 19.9908,27.8682609 20.0549739,29.5586957 C20.1144522,31.1004348 20.688887,32.5623478 21.5935826,33.4670435 C19.2160174,35.9275652 17.9059304,38.9562609 17.9059304,42.1821739 C17.9059304,50.059913 25.9981043,56.4710435 35.9419304,56.4710435 C45.888887,56.4710435 53.9779304,50.059913 53.9779304,42.1821739 C53.9779304,40.836087 53.7400174,39.5244348 53.2923652,38.2722609 C53.2954957,38.2143478 53.3033217,38.1564348 53.3033217,38.0969565 Z"/>
    <path fill="#F7F7FE" d="M54.0137739 38.2340696C53.5254261 41.6697217 45.4880348 44.5137217 36.0278609 44.5137217 26.2656 44.5137217 18.0200348 41.4865913 18.0200348 37.9038087L17.9746435 37.9038087C18.3033391 37.0883304 18.7212522 36.2978957 19.223687 35.5418957 20.5024696 39.1340696 27.4238609 41.7996348 36.0278609 41.7996348 44.4628174 41.7996348 51.2777739 39.2389391 52.747513 35.7547652 53.2656 36.5483304 53.6897739 37.3763304 54.0137739 38.2340696M47.667287 31.3602609C47.3229391 31.1270435 46.9707652 30.900087 46.5998087 30.684087 45.507287 30.0392174 44.6025913 29.1861739 43.9295478 28.2047826 44.723113 27.4425217 46.5215478 27.2938261 47.4465913 28.2204348 48.2198087 28.992087 48.1227652 30.4367826 47.667287 31.3602609M31.0536 19.456C31.0536 18.5716522 33.5986435 17.9095652 35.8744696 17.9095652 38.1502957 17.9095652 40.6953391 18.5716522 40.6953391 19.456 40.6953391 20.3403478 38.1502957 21.0008696 35.8744696 21.0008696 33.5986435 21.0008696 31.0536 20.3403478 31.0536 19.456M23.140487 30.1221739C23.1091826 29.3364348 23.3533565 28.6446087 23.824487 28.1734783 24.4411826 27.5552174 25.3490087 27.5317391 25.8357913 27.574 26.5870957 27.6381739 27.3368348 27.9418261 27.7422261 28.3487826L27.8251826 28.2658261C27.1302261 29.215913 26.2255304 30.0470435 25.1470957 30.684087 24.6149217 31.0002609 24.112487 31.3336522 23.6335304 31.6873913 23.3486609 31.2804348 23.1639652 30.7106957 23.140487 30.1221739"/>
  </g>
</svg>
