<svg xmlns="http://www.w3.org/2000/svg" width="72" height="73" viewBox="0 0 72 73" xmlns:xlink="http://www.w3.org/1999/xlink">
  <defs>
    <polygon id="a" points="0 .233 71.93 .233 71.93 71.945 0 71.945 0 .233"/>
  </defs>
  <g fill="none" fill-rule="evenodd">
    <g transform="translate(0 .233)">
      <mask id="b" fill="white">
        <use xlink:href="#a"/>
      </mask>
      <path fill="#F4FAFE" d="M36.109651,72.2328163 C16.1661875,72.2328163 0.000432983836,56.1159577 0.000432983836,36.2328163 C0.000432983836,16.3496749 16.1661875,0.23281629 36.109651,0.23281629 C56.0531145,0.23281629 72.218869,16.3496749 72.218869,36.2328163 C72.218869,56.1159577 56.0531145,72.2328163 36.109651,72.2328163 Z" mask="url(#b)"/>
    </g>
    <path fill="#9ACEFA" d="M49.5252381,20 L22.4747619,20 C20.5557732,20 19,21.569393 19,23.506708 L19,43.7882124 C19,45.5514896 20.4180539,46.9834845 22.1675421,46.9834845 L32.6099884,46.9834845 L32.6099884,50.033725 L28.1954064,50.033725 C27.3827117,50.033725 26.7258969,50.6962898 26.7258969,51.5176258 C26.7258969,52.3374352 27.3827117,53 28.1954064,53 L43.806107,53 C44.6172883,53 45.2756165,52.3374352 45.2756165,51.5176258 C45.2756165,50.6962898 44.6172883,50.033725 43.806107,50.033725 L39.391525,50.033725 L39.391525,46.9834845 L49.8339713,46.9834845 C51.5819461,46.9834845 53,45.5514896 53,43.7882124 L53,23.506708 C53,21.569393 51.4457402,20 49.5252381,20"/>
    <path fill="#F4FAFE" d="M48.1705773,41 L23.827933,41 C22.8178771,41 22,40.1360192 22,39.0709665 L22,25.9274626 C22,24.8624099 22.8178771,24 23.827933,24 L48.1705773,24 C49.1806331,24 50,24.8624099 50,25.9274626 L50,39.0709665 C50,40.1360192 49.1806331,41 48.1705773,41"/>
  </g>
</svg>
