<svg xmlns="http://www.w3.org/2000/svg" width="72" height="73" viewBox="0 0 72 73" xmlns:xlink="http://www.w3.org/1999/xlink">
  <defs>
    <polygon id="a" points="71.22 .127 71.22 72.36 0 72.36 0 .127 71.22 .127"/>
  </defs>
  <g fill="none" fill-rule="evenodd">
    <mask id="b" fill="white">
      <use xlink:href="#a"/>
    </mask>
    <path fill="#FBF6FA" d="M36.0010035,72.1267639 C16.1190007,72.1267639 0.000284489274,56.0080477 0.000284489274,36.1260449 C0.000284489274,16.2440421 16.1190007,0.126763899 36.0010035,0.126763899 C55.8830063,0.126763899 72.0002845,16.2440421 72.0002845,36.1260449 C72.0002845,56.0080477 55.8830063,72.1267639 36.0010035,72.1267639 Z" mask="url(#b)"/>
    <path fill="#E24F65" d="M46.7753488,39.6291177 C45.4182755,39.6291177 44.3152985,38.5132394 44.3152985,37.1388565 C44.3152985,35.7659097 45.4182755,34.6485953 46.7753488,34.6485953 C48.1324221,34.6485953 49.2368186,35.7659097 49.2368186,37.1388565 C49.2368186,38.5132394 48.1324221,39.6291177 46.7753488,39.6291177 L46.7753488,39.6291177 Z M53,32.3249259 L53,23.7526254 C53,21.6831523 51.5180078,20 49.6981668,20 L21.3018332,20 C19.4791531,20 18,21.6831523 18,23.7526254 L18,32.3249259 L18.0113563,32.3249259 L18.0113563,33.7079257 C18.0113563,34.4934925 18.6430483,35.1311372 19.4181132,35.1311372 L21.2024659,35.1311372 L21.2024659,37.8698501 C21.2024659,38.2202675 21.4821139,38.5017503 21.8256408,38.5017503 C22.1705873,38.5017503 22.4488157,38.2202675 22.4488157,37.8698501 L22.4488157,35.1311372 L24.1849043,35.1311372 C24.9599692,35.1311372 25.5902417,34.4934925 25.5902417,33.7079257 L25.5902417,32.3249259 L40.2014925,32.3249259 L40.2014925,43.5856745 L18,43.5856745 L18,49.249798 C18,50.7663585 18.9155986,52 20.0427077,52 L50.9558728,52 C52.0815623,52 53,50.7663585 53,49.249798 L53,43.5856745 L52.9971609,43.5856745 L52.9971609,32.3249259 L53,32.3249259 Z"/>
  </g>
</svg>
