<svg xmlns="http://www.w3.org/2000/svg" width="72" height="72" viewBox="0 0 72 72">
  <g fill="none" fill-rule="evenodd">
    <path fill="#F6F9F4" d="M36,72 C16.1179672,72 0,55.8820328 0,36 C0,16.1179672 16.1179672,0 36,0 C55.8820328,0 72,16.1179672 72,36 C72,55.8820328 55.8820328,72 36,72 Z"/>
    <g transform="translate(10 19)">
      <path fill="#F6F9F4" d="M44.8124356,23.7261871 C44.8372014,23.9424174 44.8203396,24.1937985 44.7281265,24.484591 C44.382459,25.5790572 43.5272482,25.6264574 43.0161241,25.6552171 C42.5318735,25.682379 42.3279508,25.7074106 42.1545902,26.0567877 C41.9812295,26.4072299 42.0808197,26.5909724 42.3442857,27.0095858 C42.6230328,27.4516329 43.0888407,28.1913962 42.4312295,29.1228908 C41.7730913,30.0538529 40.9447541,29.8269708 40.4504918,29.6911611 C39.9815222,29.5628077 39.7807611,29.5217985 39.510445,29.7987437 C39.2406557,30.0772867 39.2801756,30.2839304 39.4050585,30.7669868 C39.5367916,31.2756074 39.7570492,32.1266813 38.8523068,32.8030668 C37.9475644,33.4789196 37.2277752,33.000124 36.7977986,32.7141248 C36.391007,32.4435706 36.212377,32.3407813 35.8719789,32.5186653 C35.5315808,32.697082 35.5073419,32.9063886 35.4809953,33.40489 C35.4535948,33.9300208 35.4072248,34.810387 34.3438759,35.1661551 C33.28,35.5208581 32.7393677,34.837549 32.4163583,34.4290548 C32.1107377,34.0418641 31.9716276,33.8868812 31.5948712,33.9486613 C31.2170609,34.0104414 31.131171,34.2016401 30.9567564,34.6671212 C30.7718033,35.1581663 30.4640749,35.979948 29.3448712,35.979948 C28.2261944,35.979948 27.9179391,35.1581663 27.7335129,34.6671212 C27.5590984,34.2016401 27.4732084,34.0104414 27.0953981,33.9486613 C26.7175878,33.8874138 26.5790047,34.0418641 26.2733841,34.4290548 C25.9503747,34.837549 25.4102693,35.5208581 24.3458665,35.1661551 C23.2830445,34.810387 23.2366745,33.9300208 23.2087471,33.4043575 C23.1824005,32.9058561 23.1581616,32.697082 22.8188173,32.5186653 C22.4778923,32.3407813 22.2987354,32.4435706 21.8919438,32.7146573 C21.4624941,33.000124 20.7432319,33.4789196 19.8379625,32.8030668 C18.9321663,32.1272139 19.1529508,31.2750748 19.2846838,30.7664542 C19.4090398,30.2839304 19.4490867,30.0772867 19.1798244,29.7992763 C18.9095082,29.5223311 18.7087471,29.5633403 18.2397775,29.6916937 C17.7449883,29.8269708 16.9166511,30.0538529 16.2590398,29.1223583 C15.6019555,28.1913962 16.0672365,27.4516329 16.3454567,27.0101184 C16.6089227,26.591505 16.7090398,26.4072299 16.5356792,26.0573203 C16.3623185,25.7074106 16.1589227,25.682379 15.6746721,25.6557497 C15.1630211,25.62699 14.3078103,25.5790572 13.961089,24.484591 C13.8694028,24.1937985 13.8530679,23.9424174 13.8783607,23.7261871"/>
      <path fill="#A7CD8B" stroke="#A7CD8B" stroke-width=".5" d="M31.4638943,34.2488527 L31.4634133,34.2488527 L31.4638943,34.2488527 Z M29.3449947,36.1036434 C27.8937529,36.1036434 27.470935,34.9786144 27.290552,34.4982649 C27.2669819,34.4355472 27.224171,34.3227526 27.1919426,34.2527422 C27.1409543,34.3091395 27.0688011,34.4000558 27.0288763,34.4506189 C26.7123641,34.8517204 25.97111,35.7910273 24.5862492,35.3291528 C23.2100467,34.8682507 23.1470329,33.667377 23.1200957,33.1549394 C23.1162475,33.0859014 23.1095132,32.9590074 23.0989308,32.8826766 C23.0339929,32.9191404 22.9377886,32.9833166 22.8848762,33.018808 C22.4620583,33.2998222 21.4721161,33.9590872 20.2955376,33.0800672 C19.1285794,32.2093122 19.4287369,31.0487918 19.5571696,30.5533706 C19.5749674,30.4838464 19.6086389,30.3545215 19.6201834,30.2786769 C19.5480302,30.2927762 19.4335471,30.323892 19.3705333,30.3409084 C18.8832585,30.4746089 17.7427566,30.7867388 16.8913485,29.5790586 C16.0471558,28.3830468 16.6806611,27.3756742 16.9514762,26.9458879 C16.9899579,26.8841425 17.0630732,26.7679446 17.0953016,26.7013375 C17.0953016,26.7008513 17.0948206,26.6998789 17.0943396,26.6993927 C17.0226674,26.6886967 16.8980828,26.6814039 16.8317019,26.6780007 C16.3290344,26.649802 15.15438,26.5841672 14.70703,25.1718037 C14.6040914,24.8441159 14.5694578,24.5217761 14.6060155,24.2130495 L15.8460889,24.3608493 C15.8306962,24.4916327 15.8470509,24.6306812 15.8961151,24.7877186 C16.0692828,25.3327305 16.3910862,25.3896139 16.8995259,25.4178126 C17.3608255,25.4435803 17.8832148,25.4727514 18.2098284,26.1320164 C18.5325938,26.7839887 18.2521583,27.2298191 18.0049133,27.6231417 C17.7230347,28.0704307 17.5758421,28.3762402 17.9077469,28.8463798 C18.2319554,29.3058234 18.5532778,29.2576912 19.0439197,29.1235045 C19.4691427,29.0068204 19.9982663,28.8619377 20.5100731,29.3879884 C21.0146647,29.9082049 20.8823838,30.4201563 20.7650145,30.8727933 C20.6312906,31.3886342 20.5827074,31.7265318 21.0372727,32.0649157 C21.4812555,32.3964929 21.7717925,32.2482069 22.1979775,31.9647618 C22.56644,31.7192391 23.0258155,31.4134296 23.6737514,31.7527857 C24.313991,32.0882525 24.3418903,32.6196512 24.3669034,33.0878461 C24.3943216,33.6192448 24.4496391,33.9537392 24.9778007,34.1307101 C25.4987469,34.3047638 25.7320424,34.0699371 26.0533647,33.6630014 C26.3434207,33.2954465 26.6724394,32.8787871 27.3910855,32.9954712 C28.1054024,33.1126415 28.2925197,33.6104935 28.4579911,34.0500036 C28.6422223,34.5429938 28.7947061,34.8415106 29.3449947,34.8415106 C29.8957643,34.8415106 30.0477671,34.5429938 30.2324794,34.0504897 C30.3979507,33.6104935 30.5845871,33.1121553 31.299385,32.9954712 C32.016107,32.8778147 32.3460877,33.2954465 32.6366247,33.6630014 C32.9584281,34.0699371 33.1912425,34.3047638 33.7121888,34.1307101 C34.2403503,33.9537392 34.2951868,33.6192448 34.323086,33.0888185 C34.3476181,32.6196512 34.3755174,32.0882525 35.016238,31.7527857 C35.6632119,31.4134296 36.1033466,31.7061121 36.4915309,31.9642756 C36.9181969,32.2482069 37.2092149,32.3964929 37.6531978,32.0649157 C38.10632,31.7265318 38.0582179,31.3891204 37.9244939,30.8732795 C37.8076057,30.4206425 37.6748437,29.9077187 38.1794353,29.3879884 C38.6926852,28.8614515 39.2213278,29.0063342 39.6455887,29.1230183 C40.1367117,29.2576912 40.458034,29.3058234 40.7832046,28.8458936 C41.1146284,28.3762402 40.9669548,28.0704307 40.6850762,27.6231417 C40.4378311,27.2293329 40.1578766,26.7839887 40.480642,26.1315302 C40.8072556,25.4722652 41.329645,25.4430942 41.7899825,25.4173264 C42.2993843,25.3891278 42.6207066,25.3327305 42.7929123,24.7872324 C42.8429385,24.6297089 42.8597743,24.4901742 42.8448626,24.3598769 L44.084936,24.2135357 C44.1205316,24.5227485 44.0858981,24.8450882 43.9819974,25.1718037 C43.5360905,26.5841672 42.360955,26.649802 41.8592496,26.6775145 C41.7919066,26.6814039 41.667322,26.6882105 41.5956498,26.6989066 C41.5951688,26.6998789 41.5946878,26.7008513 41.5946878,26.7013375 C41.6269162,26.7679446 41.7005125,26.8841425 41.7389942,26.9454017 C42.0093283,27.3761604 42.6433146,28.3830468 41.7996029,29.5790586 C40.9453088,30.7867388 39.8057689,30.4746089 39.3194562,30.3409084 C39.2564424,30.3234058 39.1409972,30.29229 39.068844,30.2786769 C39.0808695,30.3535492 39.114541,30.4843326 39.1328198,30.554343 C39.2607716,31.049278 39.560929,32.208826 38.3954139,33.0800672 C37.2183543,33.9581149 36.2284121,33.2998222 35.8055943,33.018808 C35.7522009,32.9833166 35.6555155,32.9191404 35.5910587,32.8826766 C35.5799952,32.9590074 35.5732609,33.0863875 35.5698937,33.1549394 C35.5429565,33.667377 35.4804237,34.8677645 34.1047023,35.3291528 C32.7208035,35.7905411 31.9781063,34.8517204 31.6611132,34.4506189 C31.6211884,34.4000558 31.5490352,34.3091395 31.4980469,34.2532283 C31.4653374,34.3227526 31.4234885,34.4355472 31.3999185,34.4977787 C31.2195354,34.9781282 30.7971986,36.1036434 29.3449947,36.1036434 L29.3449947,36.1036434 Z"/>
      <path fill="#FFFFFF" d="M48.0229274,23.0339306 C48.0197658,23.0344632 48.0155504,23.0349958 48.0118618,23.0349958 L9.54845433,23.0349958 L11.7051874,18.88135 C11.7104567,18.8786871 11.7194145,18.8754916 11.731534,18.8754916 L48.0118618,18.8754916 C48.0155504,18.8754916 48.0197658,18.8760242 48.0229274,18.8765567 L48.0229274,23.0339306 Z"/>
      <path fill="#A7CD8B" d="M47.3840222,17.4932686 C47.1822073,7.96795074 39.2903454,0.27952531 29.6121838,0.27952531 C29.3898185,0.27952531 29.169034,0.287514114 28.9487763,0.295502919 L6.99783958,0.289111875 C5.70105972,0.289111875 4.64614169,1.35535098 4.64614169,2.6660475 C4.64614169,3.97674402 5.70105972,5.04245054 6.99783958,5.04245054 L3.36727752,11.1506904 L2.79661007,11.1506904 C1.49983021,11.1506904 0.444912178,12.2174621 0.444912178,13.5276261 C0.444912178,14.8383226 1.49983021,15.9045617 2.79661007,15.9045617 L11.9499473,15.9045617 C11.8909309,16.4280947 11.8519379,16.9574861 11.8403454,17.4932686 C11.2069731,17.4932686 10.7348419,17.7750071 10.4998302,18.2287712 L8.29145785,22.4809455 C8.08173888,22.885179 8.09596604,23.3602466 8.32939696,23.7511655 C8.57916276,24.168181 9.02600117,24.4174317 9.52395199,24.4174317 L48.0115984,24.4174317 C48.7719614,24.4174317 49.3905796,23.8182714 49.3905796,23.0817036 L49.3905796,18.8295293 C49.3905796,18.0929615 48.7719614,17.4932686 48.0115984,17.4932686 L47.3840222,17.4932686 Z"/>
      <path fill="#F6F9F4" d="M33.4258662,18.1282721 C33.0332298,18.1282721 32.6999638,17.8450363 32.6231781,17.4545871 C32.3207848,15.9143929 31.003553,14.7526463 29.429841,14.7526463 C27.856129,14.7526463 26.5396889,15.9143929 26.2372955,17.4545871 C26.1605098,17.8450363 25.8272438,18.1282721 25.4338158,18.1282721 L24.2812381,18.1282721 C23.7785685,18.1282721 23.3938481,17.6770151 23.4698423,17.1753519 C23.9178911,14.2181789 26.4201564,11.9482927 29.429841,11.9482927 C32.4403172,11.9482927 34.941791,14.2181789 35.3906314,17.1753519 C35.4666255,17.6770151 35.0811136,18.1282721 34.5792356,18.1282721 L33.4258662,18.1282721 Z"/>
      <path fill="#F6F9F4" stroke="#F5F9F4" stroke-width="1.296" d="M40.1001006,16.8829977 C39.7931701,11.1293041 35.1508457,6.54476872 29.4889365,6.54476872 C23.8265477,6.54476872 19.1847029,11.1293041 18.8782519,16.8829977 C18.8595484,17.2227904 17.1800628,17.1815887 17.1987664,16.8141666 C17.5411858,10.1554902 22.9230209,4.84629 29.4889365,4.84629 C36.0548521,4.84629 41.4362076,10.1554902 41.7791066,16.8141666 C41.7982897,17.1815887 40.117845,17.2227904 40.1001006,16.8829977 Z"/>
    </g>
  </g>
</svg>
