<svg xmlns="http://www.w3.org/2000/svg" width="128" height="80" viewBox="0 0 128 80" xmlns:xlink="http://www.w3.org/1999/xlink">
  <defs>
    <polygon id="a" points="70.86 0 0 0 0 51.937 70.86 51.937 70.86 0"/>
  </defs>
  <g fill="none" fill-rule="evenodd">
    <g fill="#9199AC" transform="translate(22.145 70.546)">
      <path d="M1.17194133 1.84681666L9.36732594 1.84681666 29.0516534 1.84681666 52.9622574 1.84681666 73.4800387 1.84681666C76.8197365 1.84681666 80.1914195 1.94743048 83.5289115 1.84681666 83.5744996 1.84531496 83.6206392 1.84681666 83.6664112 1.84681666 85.2276206 1.84681666 85.2301941.0447779319 83.6664112.0447779319L75.4708427.0447779319 55.7865153.0447779319 31.8759113.0447779319 11.35813.0447779319C8.01843214.0447779319 4.64674911-.0559724149 1.30925718.0447779319 1.26366905.0461431128 1.21752946.0447779319 1.17194133.0447779319-.389268133.0447779319-.392025479 1.84681666 1.17194133 1.84681666M12.4848944 8.2085553L26.8258338 8.2085553 49.5031606 8.2085553 54.706596 8.2085553C55.86569 8.2085553 55.8677372 6.40651658 54.706596 6.40651658L40.3656567 6.40651658 17.6883298 6.40651658 12.4848944 6.40651658C11.3258004 6.40651658 11.3237533 8.2085553 12.4848944 8.2085553M60.9237028 8.2085553L72.8043555 8.2085553C74.0348723 8.2085553 74.0370456 6.40651658 72.8043555 6.40651658L60.9237028 6.40651658C59.6931859 6.40651658 59.6910127 8.2085553 60.9237028 8.2085553"/>
    </g>
    <path fill="#EBEDF0" d="M90.3671875,38.5 C90.3671875,27.1781626 82.4786916,18 69.5,18 C56.5213084,18 46,27.1781626 46,38.5 C46,49.8218374 90.3671875,49.8218374 90.3671875,38.5 Z"/>
    <path fill="#EBEDF0" d="M82.9882044,49 C83.016482,49.2205297 82.9973725,49.4764729 82.8929884,49.7729607 C82.5022934,50.8878832 81.5350004,50.9364762 80.9570768,50.9655515 C80.4096399,50.9930171 80.1796634,51.01837 79.9834875,51.3747186 C79.7872012,51.7317715 79.9004221,51.919101 80.1982206,52.3456731 C80.5126986,52.7958877 81.0391481,53.5494313 80.2960877,54.4983529 C79.5519226,55.4470733 78.6155582,55.2160805 78.0561918,55.077847 C77.5265389,54.9469578 77.2992134,54.9052061 76.9940141,55.1877095 C76.6883729,55.4710177 76.7334404,55.6818892 76.874497,56.1734531 C77.0233963,56.691879 77.2725927,57.5596111 76.2497386,58.248364 C75.2264426,58.9367145 74.4127986,58.4492754 73.9266668,58.1579187 C73.4663824,57.8820553 73.2643522,57.7772232 72.8799534,57.9584158 C72.4947815,58.1403125 72.4673875,58.3535985 72.4377844,58.8612595 C72.4067453,59.396688 72.354498,60.2930929 71.1517055,60.6563834 C69.948913,61.017863 69.3377411,60.3211622 68.9724519,59.9047514 C68.6267139,59.5105747 68.4697511,59.3528235 68.0435987,59.415602 C67.6166731,59.4783805 67.5195793,59.6732556 67.3220778,60.1475152 C67.1136409,60.6478319 66.7646997,61.4852814 65.5000499,61.4852814 C64.2351792,61.4852814 63.8863484,60.6478319 63.677801,60.1475152 C63.4802996,59.6732556 63.3832058,59.4783805 62.9563906,59.415602 C62.529465,59.3529241 62.3725022,59.5105747 62.0268747,59.9049526 C61.6620273,60.3213634 61.0509658,61.017863 59.847842,60.6560816 C58.6453808,60.2930929 58.5929126,59.3964868 58.5616526,58.8609577 C58.5320495,58.3532967 58.5046556,58.1402119 58.1208091,57.958617 C57.7357476,57.7773238 57.533386,57.8819547 57.0728807,58.1580193 C56.5871907,58.4492754 55.774099,58.9370163 54.7503612,58.2484646 C53.7264025,57.5597117 53.9757094,56.6915772 54.1246086,56.1728495 C54.2658862,55.6814868 54.3108432,55.4707159 54.0064171,55.1881119 C53.7008863,54.9055079 53.4735609,54.9472597 52.9434662,55.0780483 C52.3839893,55.2160805 51.4470726,55.4472745 50.7040121,54.4981517 C49.9610622,53.5495319 50.4871803,52.7960889 50.8015478,52.3458743 C51.0994568,51.9192016 51.2125672,51.7316709 51.0169436,51.3751211 C50.8207677,51.0186718 50.5907912,50.9933189 50.0431335,50.9658533 C49.4652099,50.9366774 48.4979168,50.888185 48.1058964,49.7729607 C48.0022855,49.4765736 47.9835074,49.2206303 48.0120059,49.0003018"/>
    <polygon fill="#EBEDF0" points="45 40 93 40 93 48 41.412 48"/>
    <g transform="translate(23 15)">
      <mask id="b" fill="white">
        <use xlink:href="#a"/>
      </mask>
      <path fill="#9199AC" d="M68.8801408,32.4748596 C68.8753321,32.4755642 68.8696747,32.475987 68.8633102,32.475987 L13.1790851,32.475987 L16.3016707,26.547987 C16.3088839,26.5446049 16.3220373,26.5403772 16.3399994,26.5403772 L68.8633102,26.5403772 C68.8696747,26.5403772 68.8753321,26.5408 68.8801408,26.5415046 L68.8801408,32.4748596 Z M61.5763341,35.2307187 C60.8458261,35.2707404 60.0178699,35.3163989 59.4989476,36.347239 C58.9869556,37.3666645 59.4314835,38.0633799 59.8242464,38.6786428 C60.2710373,39.3785995 60.5044038,39.8566049 59.9789755,40.5906645 C59.4633062,41.3097864 58.9537185,41.2341117 58.1755472,41.023716 C57.5020373,40.8416455 56.6631906,40.6153257 55.8505094,41.4381659 C55.0495671,42.250155 55.2600213,43.0522797 55.4457245,43.7601279 C55.6573102,44.5663393 55.7339675,45.0939491 55.01534,45.6232499 C54.3117046,46.1415588 53.8499217,45.9096022 53.1731588,45.4661225 C52.5574954,45.0625236 51.8598002,44.6053745 50.8331289,45.1349572 C49.8172066,45.6597485 49.7729376,46.4903393 49.7340432,47.2232715 C49.6900572,48.052735 49.6027922,48.5763989 48.7656428,48.8530276 C47.9389596,49.1247241 47.5695333,48.7577648 47.0592384,48.1213637 C46.5981627,47.5462634 46.0745731,46.8947837 44.9385731,47.0779816 C43.8051189,47.2603339 43.5083898,48.0394883 43.2467365,48.7270439 C42.9535432,49.4970385 42.7125392,49.9643339 41.8394655,49.9643339 C40.9663918,49.9643339 40.7253878,49.4970385 40.4317703,48.7270439 C40.1701169,48.0396293 39.8733878,47.2603339 38.7400751,47.0779816 C37.6018122,46.8953474 37.0790711,47.5468271 36.6185612,48.1217864 C36.1088321,48.7579057 35.7396886,49.124865 34.9137125,48.8530276 C34.0757145,48.576258 33.9884496,48.0524531 33.9440392,47.222426 C33.9050034,46.4900575 33.860593,45.6598894 32.8456608,45.1346753 C31.817858,44.6053745 31.0896129,45.0825344 30.5046408,45.4664043 C29.8288679,45.909884 29.3675094,46.1414179 28.6634496,45.6235317 C27.9436906,45.0936672 28.020348,44.5657756 28.2320751,43.7594233 C28.4176369,43.0521388 28.6282325,42.2505778 27.8282803,41.4381659 C27.015599,40.6157485 26.1768938,40.8422092 25.5028181,41.0239978 C24.7243639,41.2341117 24.2144934,41.3096455 23.7003799,40.5910873 C23.1743859,39.856464 23.4077524,39.3784585 23.8546847,38.678361 C24.2470233,38.0636618 24.6915512,37.3669463 24.1801249,36.3475209 C23.6617683,35.3168217 22.8335293,35.2711631 22.1024556,35.2311415 C21.3651588,35.1905561 20.876362,35.1112173 20.5884018,34.4488867 L63.0891149,34.4488867 C62.8017205,35.1109355 62.313348,35.1901333 61.5763341,35.2307187 L61.5763341,35.2307187 Z M44.4912165,24.5674775 L39.9606528,24.5674775 C40.1974137,23.5123989 41.1219695,22.7222526 42.2258639,22.7222526 C43.3297584,22.7222526 44.2543141,23.5123989 44.4912165,24.5674775 L44.4912165,24.5674775 Z M46.498593,24.5674775 C46.2384954,22.4191306 44.4221966,20.7493528 42.2258639,20.7493528 C40.0295313,20.7493528 38.2132325,22.4191306 37.9532763,24.5674775 L29.8052484,24.5674775 C30.3026727,18.0171686 35.7115432,12.8416889 42.2886608,12.8416889 C48.8659197,12.8416889 54.2747902,18.0171686 54.772356,24.5674775 L46.498593,24.5674775 Z M42.2258639,1.97284336 C55.1463082,1.97284336 65.6903739,12.0604206 65.9811627,24.5674775 L56.7563958,24.5674775 C56.253597,16.9282688 49.9572265,10.8687892 42.2886608,10.8687892 C34.6202365,10.8687892 28.3240074,16.9282688 27.8210671,24.5674775 L18.4707066,24.5674775 C18.7614954,12.0604206 29.3055612,1.97284336 42.2258639,1.97284336 L42.2258639,1.97284336 Z M3.40456315,20.3265886 C2.61903725,20.3265886 1.98003725,19.6900466 1.98003725,18.90751 C1.98003725,18.1248325 2.61903725,17.4882905 3.40456315,17.4882905 L17.6945153,17.4882905 C17.3922703,18.4124531 17.1439118,19.3598678 16.9524098,20.3265886 L3.40456315,20.3265886 Z M11.8595034,6.79813333 L14.4931508,6.79813333 L9.18130418,15.5153908 L6.54751534,15.5153908 L11.8595034,6.79813333 Z M18.435348,15.5153908 L11.4977145,15.5153908 L16.8097026,6.79813333 L24.6283301,6.79813333 C21.9757305,9.22437724 19.8494078,12.190632 18.435348,15.5153908 L18.435348,15.5153908 Z M8.06171056,3.40615501 C8.06171056,2.62347751 8.70071056,1.9869355 9.48623645,1.9869355 L32.1884157,1.9869355 C30.3647624,2.74269702 28.6493062,3.6989897 27.0686369,4.8252336 L9.48623645,4.8252336 C8.70071056,4.8252336 8.06171056,4.1886916 8.06171056,3.40615501 L8.06171056,3.40615501 Z M68.8633102,24.5674775 L67.9612424,24.5674775 C67.670595,10.9725073 56.2383221,-5.63685637e-05 42.2258639,-5.63685637e-05 C41.9042424,-5.63685637e-05 41.5844596,0.00769430894 41.2656667,0.0192498645 L41.2656667,0.0140357724 L9.48623645,0.0140357724 C7.60883805,0.0140357724 6.08163088,1.53570515 6.08163088,3.40615501 C6.08163088,5.27646396 7.60883805,6.79813333 9.48623645,6.79813333 L9.54295159,6.79813333 L4.23110498,15.5153908 L3.40456315,15.5153908 C1.52716474,15.5153908 -4.24302789e-05,17.0370602 -4.24302789e-05,18.90751 C-4.24302789e-05,20.777819 1.52716474,22.2994883 3.40456315,22.2994883 L16.6446488,22.2994883 C16.5592225,23.0462309 16.5068918,23.8025561 16.4906269,24.5674775 L16.3399994,24.5674775 C15.5802145,24.5674775 14.8968042,24.9693854 14.556089,25.6164965 L11.3593918,31.6854179 C11.0554496,32.2623501 11.0762404,32.9399003 11.4148341,33.49809 C11.7760572,34.0934829 12.4221289,34.4488867 13.1433022,34.4488867 L18.5197843,34.4488867 C18.5475054,34.5805073 18.5821568,34.7128325 18.6247285,34.8458623 C19.3343042,37.0546645 21.1975592,37.1572553 21.9935512,37.2009409 C22.0997683,37.2068596 22.2974934,37.2177106 22.411348,37.2343393 C22.4119137,37.2354667 22.4124795,37.236594 22.4129038,37.2377214 C22.3612803,37.3417214 22.2451627,37.5236509 22.1839217,37.6196184 C21.7546687,38.2919545 20.749354,39.8664694 22.0881707,41.7366374 C23.4394337,43.6244206 25.2478122,43.1366916 26.020609,42.9282688 C26.1200373,42.9013528 26.3024875,42.8521713 26.4170492,42.8310331 C26.3982384,42.9485615 26.3449177,43.1514883 26.316348,43.2599978 C26.1129655,44.0346428 25.6367564,45.848865 27.4872823,47.2105886 C29.3539317,48.5837268 30.9231448,47.5538732 31.5934018,47.1141984 C31.677838,47.0589572 31.8307285,46.9586211 31.9336926,46.901548 C31.9505233,47.0210493 31.9609894,47.2194667 31.9667882,47.3272715 C32.0096428,48.1286916 32.1097783,50.0054829 34.2918261,50.7260141 C36.4868859,51.4485182 37.6637604,49.9796943 38.1661349,49.352594 C38.229356,49.2735371 38.3436349,49.1310656 38.4246767,49.0436943 C38.4760173,49.1526266 38.5434815,49.3297648 38.5808201,49.4278461 C38.8670831,50.1786753 39.5371986,51.9372336 41.8394655,51.9372336 C44.1422982,51.9372336 44.8119894,50.1781117 45.098111,49.4268596 C45.1350253,49.3296238 45.202348,49.1530493 45.2536886,49.0441171 C45.3347305,49.1314883 45.4488679,49.273819 45.512089,49.352735 C46.0147464,49.9795534 47.1914795,51.4482363 49.3875293,50.7260141 C51.5692942,50.0052011 51.6688639,48.1286916 51.7112942,47.3274125 C51.717093,47.2194667 51.7277006,47.0207675 51.7443898,46.901548 C51.847354,46.9586211 52.0003859,47.0588163 52.0848221,47.1141984 C52.7555034,47.5537322 54.325848,48.5831631 56.1920731,47.2100249 C58.0404775,45.8483014 57.5645512,44.0352065 57.3614516,43.2609843 C57.3327404,43.152052 57.2792783,42.9475751 57.260609,42.8304694 C57.3748878,42.8514667 57.5577624,42.9009301 57.6571906,42.9278461 C58.4291388,43.1364098 60.2368102,43.6251252 61.5906189,41.7369192 C62.9294357,39.8667512 61.9241209,38.2920954 61.4947265,37.6196184 C61.4334855,37.5236509 61.3175094,37.3420033 61.2657444,37.2380033 C61.2664516,37.236735 61.2671588,37.2353257 61.2678659,37.2339165 C61.3815791,37.2172878 61.5794456,37.2064369 61.6859456,37.2005182 C62.4816548,37.1566916 64.3451926,37.0541008 65.0523639,34.846426 C65.0950771,34.7133962 65.1301528,34.5807892 65.1581568,34.4488867 L68.8633102,34.4488867 C69.9643759,34.4488867 70.8602205,33.5937756 70.8602205,32.5426428 L70.8602205,26.4737214 C70.8602205,25.4225886 69.9643759,24.5674775 68.8633102,24.5674775 L68.8633102,24.5674775 Z" mask="url(#b)"/>
    </g>
    <g stroke="#9199AC" stroke-width="1.5" transform="scale(-1 1) rotate(45 -110.744 -93.236)" stroke-linecap="round">
      <path d="M4.125.375L8.6870719 4.9370719M0 7.5L6.45174395 7.5"/>
      <path d="M4.125,10.125 L8.6870719,14.6870719" transform="matrix(-1 0 0 1 12.75 0)"/>
    </g>
  </g>
</svg>
