<svg xmlns="http://www.w3.org/2000/svg" width="72" height="72" viewBox="0 0 72 72">
  <g fill="none" fill-rule="evenodd">
    <path fill="#F8F8F8" d="M71.9305944,36.0929617 C71.9305944,55.796743 55.8293688,71.7682161 35.9655137,71.7682161 C16.1016586,71.7682161 0.000432983836,55.796743 0.000432983836,36.0929617 C0.000432983836,16.3891804 16.1016586,0.417707374 35.9655137,0.417707374 C55.8293688,0.417707374 71.9305944,16.3891804 71.9305944,36.0929617"/>
    <path fill="#717171" stroke="#717171" d="M11.2341556,14.6641366 L0.0607210626,14.6641366 L0.0607210626,17.8519924 L11.2341556,17.8519924 L11.2341556,22.6337761 L17.5939279,16.2580645 L11.2341556,9.88235294 L11.2341556,14.6641366 Z M20.7658444,13.0702087 L20.7658444,8.28842505 L31.9392789,8.28842505 L31.9392789,5.10056926 L20.7658444,5.10056926 L20.7658444,0.318785579 L14.4060721,6.69449715 L20.7658444,13.0702087 Z" transform="translate(20 24)" stroke-linecap="round" stroke-linejoin="round"/>
  </g>
</svg>
