<svg xmlns="http://www.w3.org/2000/svg" width="128" height="80" viewBox="0 0 128 80">
  <g fill="none" fill-rule="evenodd">
    <path fill="#9199AC" d="M7.27634354,1.62563294 C4.11244028,1.62563294 1.53840859,4.20045097 1.53840859,7.36532078 L1.53840859,41.5327454 C1.53840859,44.6976152 4.11244028,47.2724332 7.27634354,47.2724332 L53.939201,47.2724332 C57.1032326,47.2724332 59.6771359,44.6976152 59.6771359,41.5327454 L59.6771359,7.36532078 C59.6771359,4.20045097 57.1032326,1.62563294 53.939201,1.62563294 L7.27634354,1.62563294 Z M53.939201,48.7776621 L7.27634354,48.7776621 C3.28287324,48.7776621 0.0337677356,45.527564 0.0337677356,41.5327454 L0.0337677356,7.36532078 C0.0337677356,3.37050215 3.28287324,0.120532428 7.27634354,0.120532428 L53.939201,0.120532428 C57.932543,0.120532428 61.1817768,3.37050215 61.1817768,7.36532078 L61.1817768,41.5327454 C61.1817768,45.527564 57.932543,48.7776621 53.939201,48.7776621 L53.939201,48.7776621 Z" transform="translate(34.333 8.626)"/>
    <path fill="#EBEDF0" d="M48.0284542,19 C46.0486043,19 44.4377309,20.6109797 44.4377309,22.5909601 L44.4377309,41.9326694 C44.4377309,43.9126498 46.0486043,45.5236295 48.0284542,45.5236295 L85.0934727,45.5236295 C87.0733226,45.5236295 88.6841961,43.9126498 88.6841961,41.9326694 C88.6841961,41.9326694 90.664046,19 88.6841961,19 L48.0284542,19 Z"/>
    <path fill="#9199AC" d="M64.6722423 49.3668774C63.7685083 49.3668774 63.0332539 50.102228 63.0332539 51.0063665 63.0332539 51.910505 63.7685083 52.6461123 64.6722423 52.6461123 65.5758481 52.6461123 66.3112307 51.910505 66.3112307 51.0063665 66.3112307 50.102228 65.5758481 49.3668774 64.6722423 49.3668774M64.6722423 54.1510844C62.9386846 54.1510844 61.5284848 52.7404538 61.5284848 51.0063665 61.5284848 49.2725359 62.9386846 47.8617769 64.6722423 47.8617769 66.4058 47.8617769 67.8159999 49.2725359 67.8159999 51.0063665 67.8159999 52.7404538 66.4058 54.1510844 64.6722423 54.1510844M57.2299288 66.0573716L73.5928661 66.0573716 73.5928661 57.4031079 57.2299288 57.4031079 57.2299288 66.0573716zM55.7251597 67.5626005L75.0975069 67.5626005 75.0975069 55.8980074 55.7251597 55.8980074 55.7251597 67.5626005z"/>
    <path fill="#9199AC" d="M48.860348,67.5625748 C47.8750046,67.5625748 47.0735389,68.3642854 47.0735389,69.3498015 C47.0735389,70.3354459 47.8750046,71.1371565 48.860348,71.1371565 L82.0027383,71.1371565 C82.9879534,71.1371565 83.7895475,70.3354459 83.7895475,69.3498015 C83.7895475,68.3642854 82.9879534,67.5625748 82.0027383,67.5625748 L48.860348,67.5625748 Z M82.0027383,72.642257 L48.860348,72.642257 C47.0451809,72.642257 45.568898,71.1652664 45.568898,69.3498015 C45.568898,67.5343365 47.0451809,66.057346 48.860348,66.057346 L82.0027383,66.057346 C83.8177771,66.057346 85.2941883,67.5343365 85.2941883,69.3498015 C85.2941883,71.1652664 83.8177771,72.642257 82.0027383,72.642257 L82.0027383,72.642257 Z"/>
    <path fill="#9199AC" d="M34.5682267 72.7481404L40.6527537 72.7481404 55.2670553 72.7481404 73.0190856 72.7481404 88.2521712 72.7481404C90.7316743 72.7481404 93.2349243 72.8487542 95.7127896 72.7481404 95.7466358 72.7466387 95.7808914 72.7481404 95.814874 72.7481404 96.973968 72.7481404 96.9758787 70.9461017 95.814874 70.9461017L89.7302105 70.9461017 75.1159089 70.9461017 57.3638786 70.9461017 42.1307931 70.9461017C39.65129 70.9461017 37.14804 70.8453513 34.6701746 70.9461017 34.6363284 70.9474668 34.6020729 70.9461017 34.5682267 70.9461017 33.4091327 70.9461017 33.4070856 72.7481404 34.5682267 72.7481404M34.6296684 78.7549361L48.9706078 78.7549361 71.6479346 78.7549361 76.85137 78.7549361C78.010464 78.7549361 78.0125112 76.9528974 76.85137 76.9528974L62.5104307 76.9528974 39.8331038 76.9528974 34.6296684 76.9528974C33.4705744 76.9528974 33.4685272 78.7549361 34.6296684 78.7549361M99.2580369 72.7481404L105.511385 72.7481404C106.670479 72.7481404 106.672526 70.9461017 105.511385 70.9461017L99.2580369 70.9461017C98.0989429 70.9461017 98.0968958 72.7481404 99.2580369 72.7481404M83.8116797 78.7549361L95.0027439 78.7549361C96.1618379 78.7549361 96.1638851 76.9528974 95.0027439 76.9528974L83.8116797 76.9528974C82.6525857 76.9528974 82.6505386 78.7549361 83.8116797 78.7549361M25.0148792 72.7481404L31.2682275 72.7481404C32.4273216 72.7481404 32.4293687 70.9461017 31.2682275 70.9461017L25.0148792 70.9461017C23.8557852 70.9461017 23.8537381 72.7481404 25.0148792 72.7481404M45.3008885 16.5051005C43.2077875 16.5051005 41.5047692 18.2086391 41.5047692 20.3023795L41.5047692 40.7553683C41.5047692 42.8491086 43.2077875 44.5526473 45.3008885 44.5526473L84.4860941 44.5526473C86.579195 44.5526473 88.2822134 42.8491086 88.2822134 40.7553683L88.2822134 20.3023795C88.2822134 18.2086391 86.579195 16.5051005 84.4860941 16.5051005L45.3008885 16.5051005zM84.4860941 46.0577478L45.3008885 46.0577478C42.3779639 46.0577478 40 43.6790575 40 40.7553683L40 20.3023795C40 17.3788187 42.3779639 15 45.3008885 15L84.4860941 15C87.4090187 15 89.7868542 17.3788187 89.7868542 20.3023795L89.7868542 40.7553683C89.7868542 43.6790575 87.4090187 46.0577478 84.4860941 46.0577478L84.4860941 46.0577478z"/>
    <path stroke="#9199AC" stroke-width="1.5" d="M85.5 24.5L76.2804555 33.7195445M73.5 36.5L70.5 39.5M63.5 36.5L60.5 39.5" stroke-linecap="round"/>
    <g stroke="#9199AC" stroke-width="1.5" transform="translate(102 25)" stroke-linecap="round">
      <path d="M.625 5.5862069L.625 12.1108333M9.375 5.5862069L9.375 15.2068966M5 .306264604L5 17.6924252"/>
    </g>
    <g stroke="#9199AC" stroke-width="1.5" transform="rotate(-180 14.07 21.5)" stroke-linecap="round">
      <path d="M.625 5.5862069L.625 12.1108333M9.375 5.5862069L9.375 15.2068966M5 .306264604L5 17.6924252"/>
    </g>
  </g>
</svg>
