<svg xmlns="http://www.w3.org/2000/svg" width="128" height="80" viewBox="0 0 128 80" xmlns:xlink="http://www.w3.org/1999/xlink">
  <defs>
    <polygon id="a" points="62.585 21.472 62.585 .185 31.293 .185 0 .185 0 21.472 62.585 21.472"/>
    <polygon id="c" points="0 14.569 62.585 14.569 62.585 .036 0 .036 0 14.569"/>
    <polygon id="e" points="0 55.74 62.585 55.74 62.585 .47 0 .47"/>
  </defs>
  <g fill="none" fill-rule="evenodd">
    <g fill="#9199AC" transform="translate(18.145 70.546)">
      <path d="M1.30784567 1.84681666L10.4536092 1.84681666 32.4206325 1.84681666 59.104033 1.84681666 82.0011618 1.84681666C85.7281481 1.84681666 89.4908288 1.94743048 93.2153535 1.84681666 93.2662283 1.84531496 93.3177184 1.84681666 93.3687983 1.84681666 95.1110537 1.84681666 95.1139256.0447779319 93.3687983.0447779319L84.2228296.0447779319 62.2558064.0447779319 35.5724058.0447779319 12.6752771.0447779319C8.94829076.0447779319 5.18561003-.0559724149 1.46108537.0447779319 1.41021061.0461431128 1.35872043.0447779319 1.30784567.0447779319-.434409667.0447779319-.437486769 1.84681666 1.30784567 1.84681666M16.4848944 8.2085553L30.8258338 8.2085553 53.5031606 8.2085553 58.706596 8.2085553C59.86569 8.2085553 59.8677372 6.40651658 58.706596 6.40651658L44.3656567 6.40651658 21.6883298 6.40651658 16.4848944 6.40651658C15.3258004 6.40651658 15.3237533 8.2085553 16.4848944 8.2085553M64.9237028 8.2085553L76.8043555 8.2085553C78.0348723 8.2085553 78.0370456 6.40651658 76.8043555 6.40651658L64.9237028 6.40651658C63.6931859 6.40651658 63.6910127 8.2085553 64.9237028 8.2085553"/>
    </g>
    <path fill="#EBEDF0" d="M39,37.3784918 L96,37.3784918 C96,37.3784918 95.4576507,21 95.4771618,21 L43.3558373,21 C40.9538153,21 39,23.0102989 39,25.4804538 L39,37.3784918 Z"/>
    <rect width="19" height="22" x="77" y="37" fill="#EBEDF0"/>
    <path fill="#EBEDF0" d="M38,68 L96.0086297,68 C96.0086297,68 95.4566834,58 95.4765397,58 L42.4329149,58 C39.9883886,58 38,59.2274017 38,60.7355716 L38,68 Z" transform="matrix(1 0 0 -1 0 126)"/>
    <g transform="translate(34 16)">
      <g transform="translate(0 .285)">
        <mask id="b" fill="white">
          <use xlink:href="#a"/>
        </mask>
        <path fill="#9199AC" d="M1.32453893,20.0176915 L61.2611038,20.0176915 L61.2611038,6.66676772 C61.2611038,3.89497891 59.2066305,1.63919962 56.6808595,1.63919962 L5.90478321,1.63919962 C3.37901221,1.63919962 1.32453893,3.89497891 1.32453893,6.66676772 L1.32453893,20.0176915 Z M62.5855466,21.4717292 L9.61832066e-05,21.4717292 L9.61832066e-05,6.66676772 C9.61832066e-05,3.09229745 2.64898168,0.18469193 5.90478321,0.18469193 L56.6808595,0.18469193 C59.9366611,0.18469193 62.5855466,3.09229745 62.5855466,6.66676772 L62.5855466,21.4717292 Z" mask="url(#b)"/>
      </g>
      <g transform="translate(0 41.171)">
        <mask id="d" fill="white">
          <use xlink:href="#c"/>
        </mask>
        <path fill="#9199AC" d="M1.31299695,1.74273049 L1.31299695,9.81889031 C1.31299695,11.4966262 2.36331756,12.8618426 3.65361527,12.8618426 L58.9320275,12.8618426 C60.2223252,12.8618426 61.2726458,11.4966262 61.2726458,9.81889031 L61.2726458,1.74273049 L1.31299695,1.74273049 Z M58.9320275,14.5687156 L3.65361527,14.5687156 C1.63905802,14.5687156 9.61832066e-05,12.4374741 9.61832066e-05,9.81889031 L9.61832066e-05,0.0358574917 L62.5855466,0.0358574917 L62.5855466,9.81889031 C62.5855466,12.4374741 60.9465847,14.5687156 58.9320275,14.5687156 L58.9320275,14.5687156 Z" mask="url(#d)"/>
      </g>
      <mask id="f" fill="white">
        <use xlink:href="#e"/>
      </mask>
      <path fill="#9199AC" d="M41.1914198 41.2069783L61.0950916 41.2069783 61.0950916 21.7569913 41.1914198 21.7569913 41.1914198 41.2069783zM39.7029847 42.661486L62.5830458 42.661486 62.5830458 20.3029535 39.7029847 20.3029535 39.7029847 42.661486zM36.9658511 13.7589378C36.9658511 14.7293929 36.1607977 15.5160959 35.1677061 15.5160959 34.1746145 15.5160959 33.3695611 14.7293929 33.3695611 13.7589378 33.3695611 12.7884828 34.1746145 12.0017797 35.1677061 12.0017797 36.1607977 12.0017797 36.9658511 12.7884828 36.9658511 13.7589378M45.7707504 13.7589378C45.7707504 14.7293929 44.9656969 15.5160959 43.9726053 15.5160959 42.9795137 15.5160959 42.1744603 14.7293929 42.1744603 13.7589378 42.1744603 12.7884828 42.9795137 12.0017797 43.9726053 12.0017797 44.9656969 12.0017797 45.7707504 12.7884828 45.7707504 13.7589378M54.0484695 13.7589378C54.0484695 14.7293929 53.243416 15.5160959 52.2503244 15.5160959 51.2572328 15.5160959 50.4521794 14.7293929 50.4521794 13.7589378 50.4521794 12.7884828 51.2572328 12.0017797 52.2503244 12.0017797 53.243416 12.0017797 54.0484695 12.7884828 54.0484695 13.7589378" mask="url(#f)"/>
      <path fill="#9199AC" d="M51.304074 26.7088498C48.6104634 26.7088498 46.4194099 28.8499603 46.4194099 31.4821728 46.4194099 34.1148552 48.6104634 36.2559657 51.304074 36.2559657 53.9981656 36.2559657 56.1892191 34.1148552 56.1892191 31.4821728 56.1892191 28.8499603 53.9981656 26.7088498 51.304074 26.7088498M51.304074 37.6428C47.8275321 37.6428 45.0002267 34.8794704 45.0002267 31.4821728 45.0002267 28.0853451 47.8275321 25.3220155 51.304074 25.3220155 54.780616 25.3220155 57.6084023 28.0853451 57.6084023 31.4821728 57.6084023 34.8794704 54.780616 37.6428 51.304074 37.6428M3.43393282 21.7571323L3.43393282 24.1468485C3.43393282 24.7004543 3.89465038 25.1506702 4.46020763 25.1506702L12.9854061 25.1506702C13.5514443 25.1506702 14.0121618 24.7004543 14.0121618 24.1468485L14.0121618 21.7571323 3.43393282 21.7571323zM12.9854061 26.604708L4.46020763 26.604708C3.07372672 26.604708 1.94597863 25.5017259 1.94597863 24.1468485L1.94597863 20.3030945 15.500116 20.3030945 15.500116 24.1468485C15.500116 25.5017259 14.371887 26.604708 12.9854061 26.604708L12.9854061 26.604708z" mask="url(#f)"/>
      <path fill="#9199AC" d="M8.64744733,36.3208663 L8.64744733,36.3208663 C8.25550076,36.3208663 7.93761527,36.0102267 7.93761527,35.6272142 L7.93761527,26.1487116 L9.35727939,26.1487116 L9.35727939,35.6272142 C9.35727939,36.0102267 9.03939389,36.3208663 8.64744733,36.3208663" mask="url(#f)"/>
    </g>
  </g>
</svg>
