<svg xmlns="http://www.w3.org/2000/svg" viewBox="0 0 32.83 35.32"><defs><style>.cls-1{fill:none;}.cls-1,.cls-2,.cls-3{stroke:#000;}.cls-1,.cls-3{stroke-linecap:round;stroke-linejoin:round;}.cls-2,.cls-4{fill:#fff;}.cls-2{stroke-miterlimit:10;stroke-width:1.04px;}.cls-3{fill:#f2f2f2;stroke-width:0.78px;}</style></defs><title>woodworking-small</title><g id="Layer_2" data-name="Layer 2"><g id="Layer_4" data-name="Layer 4"><path d="M20.09,11.91V32.85c-.54.53-3.62,1.47-8.9,1.47s-8.35-.94-8.9-1.47V11.91h17.8m1-1H1.3V33c0,1.29,4.43,2.33,9.9,2.33s9.9-1,9.9-2.33V10.91Z"/><ellipse cx="11.2" cy="11.11" rx="9.9" ry="2.33"/><line class="cls-1" x1="4.36" y1="12.77" x2="4.36" y2="28.23"/><line class="cls-1" x1="14.04" y1="34.34" x2="14.04" y2="24.72"/><line class="cls-1" x1="8.53" y1="28.23" x2="8.53" y2="29.93"/><line class="cls-1" x1="11.35" y1="16.44" x2="11.35" y2="18.57"/><line class="cls-1" x1="17.58" y1="11.93" x2="17.58" y2="32.18"/><line class="cls-1" x1="8.39" y1="17.22" x2="8.39" y2="23.64"/><polygon class="cls-2" points="25.03 1.42 25.23 15.11 0.65 6.26 0.53 1.78 25.03 1.42"/><line class="cls-3" x1="9.19" y1="9.19" x2="9.16" y2="7.33"/><line class="cls-3" x1="13.13" y1="10.39" x2="13.09" y2="7.33"/><line class="cls-3" x1="17.08" y1="11.66" x2="17.02" y2="7.33"/><line class="cls-3" x1="21.02" y1="13.41" x2="20.95" y2="7.33"/><path class="cls-4" d="M26.32,15.07a.63.63,0,0,1-.62-.61L25.51,2.26a.62.62,0,0,1,.61-.63l4.33-.06a.63.63,0,0,1,.63.61l.18,12.21a.62.62,0,0,1-.61.63Z"/><path d="M29.55,3.13l.15,10.33-2.46,0L27.09,3.17l2.46,0M30.47,0h0L26.11.06A2.18,2.18,0,0,0,24,2.28l.18,12.21a2.18,2.18,0,0,0,2.18,2.15h0l4.33-.06a2.18,2.18,0,0,0,2.15-2.21L32.65,2.15A2.18,2.18,0,0,0,30.47,0Z"/></g></g></svg>