<svg xmlns="http://www.w3.org/2000/svg" width="128" height="80" viewBox="0 0 128 80">
  <g fill="none" fill-rule="evenodd">
    <g fill="#9199AC" transform="translate(23.145 70.546)">
      <path d="M1.98483112 1.84681666L10.0026374 1.84681666 29.2604431 1.84681666 52.65295 1.84681666 72.7261502 1.84681666C75.9934831 1.84681666 79.2921082 1.94743048 82.5572831 1.84681666 82.6018834 1.84531496 82.6470232 1.84681666 82.6918034 1.84681666 84.2191844 1.84681666 84.2217022.0447779319 82.6918034.0447779319L74.6738173.0447779319 55.4160116.0447779319 32.0235047.0447779319 11.9503045.0447779319C8.68297156.0447779319 5.38434646-.0559724149 2.11917159.0447779319 2.07457128.0461431128 2.02943144.0447779319 1.98483112.0447779319.457450084.0447779319.454752484 1.84681666 1.98483112 1.84681666M11.4848944 8.2085553L25.8258338 8.2085553 48.5031606 8.2085553 53.706596 8.2085553C54.86569 8.2085553 54.8677372 6.40651658 53.706596 6.40651658L39.3656567 6.40651658 16.6883298 6.40651658 11.4848944 6.40651658C10.3258004 6.40651658 10.3237533 8.2085553 11.4848944 8.2085553M59.9237028 8.2085553L71.8043555 8.2085553C73.0348723 8.2085553 73.0370456 6.40651658 71.8043555 6.40651658L59.9237028 6.40651658C58.6931859 6.40651658 58.6910127 8.2085553 59.9237028 8.2085553"/>
    </g>
    <path fill="#EBEDF0" d="M73.7094727,22.8344727 C73.7449839,21.2572394 72.6370017,22.477812 71.1245117,22.8344727 C68.8818447,23.3633166 65.9268409,23.6623535 65.9268409,23.6623535 C65.9268409,23.6623535 57.8625641,23.5903341 55.904541,22.8344727 C62.4336924,29.454834 56.6577194,36.0742881 52.9819259,38.3426398 C47.2261462,41.8948047 44,47.2687108 44,53.1897531 C44,63.3911964 54.1155956,71.6795814 66.5,71.6795814 C78.882935,71.6795814 89.7910156,63.3911964 89.7910156,53.1897531 C89.7910156,47.2687108 86.6283675,40.7826337 80.7851562,37.2304688 C77.3841472,35.1355432 73.6213065,26.750372 73.7094727,22.8344727 Z"/>
    <ellipse cx="64.5" cy="18.5" fill="#EBEDF0" rx="8.5" ry="2.5"/>
    <path fill="#9199AC" d="M64.4596248,70.964823 C50.9001292,70.964823 39.8690832,62.3651062 39.8690832,51.7930991 C39.8690832,50.6724796 39.9911062,49.5684619 40.2268513,48.490177 C43.0018372,52.8921363 52.7072319,56.0556035 64.5791575,56.0556035 C76.1945858,56.0556035 85.7306425,53.0257805 88.7380531,48.7724071 C88.9389345,49.7610425 89.0501664,50.7696 89.0501664,51.7930991 C89.0501664,62.3651062 78.0191204,70.964823 64.4596248,70.964823 M44.7508336,28.4476903 C47.1904637,26.0088903 51.8622018,26.6505487 54.2462159,28.3663416 C54.0071504,29.082708 53.6958673,29.7799823 53.3123664,30.4465434 C51.5334867,29.0428637 47.9292425,28.4584814 45.8938655,30.4955186 C44.0402779,32.3482761 44.1465292,35.5117434 45.3983027,37.3860832 C45.1451257,37.5969257 44.9035699,37.8135788 44.6636743,38.031892 C42.5701912,35.7939735 42.1858602,31.0126637 44.7508336,28.4476903 M47.0676106,31.6692637 C48.4289558,30.3087487 51.2205434,30.8059717 52.3768566,31.8402619 C51.4147841,33.0804142 50.1978743,34.1711504 48.7651416,35.0178407 C48.0454549,35.4436761 47.3647823,35.8985646 46.7123327,36.370885 C45.9038265,35.0817575 45.8639823,32.872892 47.0676106,31.6692637 M64.3616743,24.3478832 C67.3192796,24.3478832 70.3565735,23.9428 72.7546991,23.1699876 C72.650108,23.7850832 72.5961522,24.4798673 72.5961522,25.2692814 C72.4923912,29.7318372 74.9892973,34.0150938 79.1164973,36.4505735 C81.6814708,37.9430726 83.7923858,39.7559858 85.4060779,41.7855522 C84.6224743,46.0380956 75.4068319,49.5261274 64.5791575,49.5261274 C53.4526513,49.5261274 44.0303168,45.8430248 43.7065823,41.4335947 C45.2522071,39.541823 47.2352885,37.8509327 49.6093416,36.4480832 C54.1681876,33.754446 56.8402425,28.8818265 56.4168973,24.0141876 C56.3836938,23.7211664 56.3396991,23.4862513 56.2932142,23.2745788 C58.6373841,23.9793239 61.5368832,24.3478832 64.3616743,24.3478832 M53.0293062,19.1731115 C53.0293062,17.7063451 57.3407858,15.660177 64.3616743,15.660177 C71.3825628,15.660177 75.6932124,17.7063451 75.6932124,19.1731115 C75.6932124,20.640708 71.3825628,22.6877062 64.3616743,22.6877062 C57.3407858,22.6877062 53.0293062,20.640708 53.0293062,19.1731115 M81.3353239,35.8803027 C80.8879062,35.5839611 80.4305274,35.2942602 79.9557168,35.0178407 C78.4507664,34.1304761 77.199823,32.9633717 76.2518619,31.625269 C77.3924035,30.6648566 79.732423,30.5063097 80.9642743,31.737331 C81.9778124,32.750869 81.8939735,34.6052867 81.3353239,35.8803027 M84.1899982,28.4476903 C86.6744531,30.9321451 85.9622372,35.7375274 84.1767168,38.0767168 C83.7085469,37.6583522 83.2187947,37.2524389 82.7049699,36.8606372 C83.6396496,35.0253115 83.8156283,32.2420248 82.1380195,30.5635858 C80.3118248,28.7365611 77.1583186,28.8942779 75.3819292,30.1892159 C75.0789469,29.5865717 74.8373912,28.9598549 74.6531115,28.3181965 C76.9109522,26.2620673 81.6432867,25.9018088 84.1899982,28.4476903 M88.033308,46.3269664 C87.3899894,50.3039204 78.1311823,54.3954265 64.5791575,54.3954265 C50.5257593,54.3954265 41.0851628,49.9959575 41.0851628,45.8870195 L41.0419982,45.8870195 C41.4238389,44.9481894 41.8903487,44.0359221 42.4506584,43.1593487 C44.4528319,47.7895823 53.4534814,51.1863044 64.5791575,51.1863044 C75.4840301,51.1863044 84.3452248,47.9215664 86.5773327,43.4316177 C87.1625451,44.362977 87.6514673,45.3300301 88.033308,46.3269664 M89.7192177,46.1144637 C89.7233681,46.0389257 89.7324991,45.9633876 89.7324991,45.8870195 L89.6420195,45.8870195 C89.0410354,44.2700071 88.1976655,42.7235522 87.1227009,41.2758779 C87.1227009,41.2509752 87.1268513,41.2260726 87.1268513,41.2003398 L87.0621044,41.2003398 C86.5516,40.5204973 85.9912903,39.8622372 85.3820053,39.2305398 C88.5795062,35.4494867 87.6805204,29.589892 85.3637434,27.2739451 C82.3887062,24.2980779 77.3077345,24.4757168 74.3061345,26.4903416 C74.2671204,26.0918991 74.2463681,25.6917965 74.2563292,25.2892035 C74.2563292,24.0216584 74.4065752,23.0579257 74.6904655,22.3897044 C76.318269,21.5645965 77.3533894,20.4896319 77.3533894,19.1731115 C77.3533894,15.8137434 70.6595558,14 64.3616743,14 C58.0637929,14 51.3691292,15.8137434 51.3691292,19.1731115 C51.3691292,20.5477381 52.4997097,21.6583965 54.2528566,22.4959558 L54.4338159,22.8587044 L54.481131,22.9890283 C54.5774212,23.248846 54.696954,23.5709204 54.7641912,24.1785451 C54.8355788,24.993692 54.8015451,25.8113292 54.6770319,26.615685 C50.9175611,24.1934867 45.7236973,25.1265062 43.5770885,27.2739451 C40.2957487,30.555285 40.8477575,36.3999381 43.4724973,39.1873752 C40.0774354,42.7559257 38.2089062,47.1321522 38.2089062,51.7930991 C38.2089062,63.2798637 49.9853717,72.625 64.4596248,72.625 C78.9338779,72.625 90.7103434,63.2798637 90.7103434,51.7930991 C90.7103434,49.8374106 90.3650265,47.9331876 89.7192177,46.1144637"/>
    <path stroke="#9199AC" stroke-width="1.5" d="M35 43C35 43 32.0115877 47.2002948 33.3406975 52.1753157M31 43C31 43 28.0115877 47.2002948 29.3406975 52.1753157" stroke-linecap="round"/>
    <path stroke="#9199AC" stroke-width="1.5" d="M102,43 C102,43 99.0115877,47.2002948 100.340698,52.1753157" stroke-linecap="round" transform="matrix(-1 0 0 1 202 0)"/>
    <path stroke="#9199AC" stroke-width="1.5" d="M98,43 C98,43 95.0115877,47.2002948 96.3406975,52.1753157" stroke-linecap="round" transform="matrix(-1 0 0 1 194 0)"/>
  </g>
</svg>
