<svg xmlns="http://www.w3.org/2000/svg" width="128" height="80" viewBox="0 0 128 80">
  <g fill="none" fill-rule="evenodd">
    <g fill="#9199AC" transform="translate(23.145 70.546)">
      <path d="M1.47615031 2.20175956L9.53710163 2.20175956 28.8985365 2.20175956 52.416922 2.20175956 72.5981391 2.20175956C75.8830541 2.20175956 79.1994296 2.30237339 82.4821749 2.20175956 82.5270152 2.20025786 82.5723979 2.20175956 82.6174191 2.20175956 84.1530192 2.20175956 84.1555505.399720835 82.6174191.399720835L74.5562869.399720835 55.1948521.399720835 31.6764665.399720835 11.4952494.399720835C8.21033446.399720835 4.89395895.298970488 1.61121369.399720835 1.56637337.401086015 1.52099063.399720835 1.47615031.399720835-.0594497988.399720835-.0621619149 2.20175956 1.47615031 2.20175956M11.433897 8.2085553L24.9342882 8.2085553 46.2824563 8.2085553 51.1809091 8.2085553C52.2720665 8.2085553 52.2739937 6.40651658 51.1809091 6.40651658L37.6805179 6.40651658 16.3323497 6.40651658 11.433897 6.40651658C10.3427395 6.40651658 10.3408124 8.2085553 11.433897 8.2085553M58.0582743 8.2085553L71.669784 8.2085553C73.0795712 8.2085553 73.0820611 6.40651658 71.669784 6.40651658L58.0582743 6.40651658C56.6484871 6.40651658 56.6459972 8.2085553 58.0582743 8.2085553"/>
    </g>
    <g transform="translate(35 13)">
      <path fill="#9199AC" d="M26.6363338,1.6620481 C15.7945698,1.5061733 5.81711047,8.04763108 1.9137558,18.127645 C0.85501579,20.8620589 -2.18802939,30.1610476 3.3573711,29.9001555 C5.07166428,29.8199064 6.57654001,29.6485101 8.2685264,30.1006131 C9.88693369,30.5332317 11.3894789,31.3350623 12.6596339,32.4179298 C15.062774,34.4677495 16.5010623,37.5102803 16.5366866,40.6538656 C16.5576616,42.5002555 16.1151882,44.3360775 15.2412283,45.9671488 C14.7161865,46.9473107 14.0909306,47.7346106 14.3486239,48.9010296 C14.9059606,51.4221064 18.9937624,51.967338 21.0593043,52.3652811 C26.7725051,53.466312 32.7776917,52.6208893 37.9418792,49.9554963 C47.5111576,45.0163786 53.0522299,34.35976 51.585309,23.7639061 C49.8783404,11.4369173 39.097171,2.06758678 26.6363338,1.6620481 C25.9934322,1.64124278 25.9940981,2.63197245 26.6363338,2.65277777 C37.1777885,2.99557024 46.6478517,10.0234763 49.748162,20.0757498 C52.839816,30.0983014 49.0010512,41.219242 40.4082773,47.2983593 C36.2265872,50.2570083 31.1592844,51.8494411 26.0260601,51.8520831 C24.2498406,51.8527436 22.4762846,51.6654957 20.7403505,51.2900091 C19.3533345,50.9904785 16.3082917,50.4898298 15.5804912,49.1913134 C14.8427026,47.8746337 16.0892191,46.6372123 16.5999446,45.4232382 C17.1632742,44.0837717 17.4749033,42.6498556 17.5291721,41.2000879 C17.6983041,36.6655182 15.1356872,32.3076286 11.1128081,30.1653408 C9.08621994,29.0854454 6.75632605,28.5927226 4.46139056,28.7707237 C3.57910722,28.839084 2.45544447,29.170318 1.72964158,28.4639277 C1.1053845,27.8562802 1.21159143,27.0653476 1.23922521,26.3256028 C1.29349396,24.8629556 1.47694231,23.4088947 1.79190082,21.9789415 C4.3182276,10.5155387 14.893309,2.48369324 26.6363338,2.65277777 C27.2792353,2.66202458 27.2795683,1.67129491 26.6363338,1.6620481"/>
      <path stroke="#9199AC" stroke-width=".75" d="M26.5115783,2.00272589 C15.6698143,1.84685109 5.69235502,8.38830888 1.78900036,18.4683228 C0.730260349,21.2027367 -2.31278483,30.5017254 3.23261566,30.2408333 C4.94690884,30.1605842 6.45178457,29.9891879 8.14377096,30.4412909 C9.76217825,30.8739095 11.2647234,31.6757401 12.5348785,32.7586076 C14.9380185,34.8084273 16.3763069,37.8509581 16.4119311,40.9945434 C16.4329062,42.8409333 15.9904327,44.6767553 15.1164728,46.3078266 C14.591431,47.2879885 13.9661751,48.0752884 14.2238684,49.2417074 C14.7812052,51.7627842 18.869007,52.3080158 20.9345488,52.7059588 C26.6477496,53.8069898 32.6529363,52.9615671 37.8171238,50.296174 C47.3864021,45.3570564 52.9274745,34.7004378 51.4605536,24.1045839 C49.753585,11.7775951 38.9724155,2.40826457 26.5115783,2.00272589 C25.8686768,1.98192057 25.8693427,2.97265024 26.5115783,2.99345556 C37.0530331,3.33624803 46.5230962,10.3641541 49.6234066,20.4164276 C52.7150606,30.4389792 48.8762957,41.5599198 40.2835219,47.6390371 C36.1018318,50.5976861 31.034529,52.1901189 25.9013046,52.1927609 C24.1250851,52.1934214 22.3515292,52.0061735 20.6155951,51.6306869 C19.2285791,51.3311563 16.1835363,50.8305076 15.4557358,49.5319912 C14.7179471,48.2153115 15.9644637,46.9778901 16.4751892,45.763916 C17.0385188,44.4244495 17.3501479,42.9905334 17.4044167,41.5407657 C17.5735487,37.006196 15.0109318,32.6483064 10.9880527,30.5060186 C8.9614645,29.4261232 6.63157061,28.9334003 4.33663512,29.1114014 C3.45435178,29.1797618 2.33068903,29.5109957 1.60488613,28.8046055 C0.980629055,28.196958 1.08683599,27.4060254 1.11446977,26.6662806 C1.16873852,25.2036334 1.35218687,23.7495725 1.66714537,22.3196193 C4.19347216,10.8562165 14.7685536,2.82437103 26.5115783,2.99345556 C27.1544799,3.00270237 27.1548128,2.0119727 26.5115783,2.00272589 Z"/>
      <path fill="#9199AC" stroke="#9199AC" stroke-width=".5" d="M26.0262265 39.9631619C23.731291 39.9631619 21.8645127 41.8148356 21.8645127 44.0912022 21.8645127 46.3675687 23.731291 48.2192425 26.0262265 48.2192425 28.321162 48.2192425 30.1879404 46.3675687 30.1879404 44.0912022 30.1879404 41.8148356 28.321162 39.9631619 26.0262265 39.9631619M26.0262265 49.2099722C23.1806131 49.2099722 20.8657013 46.913791 20.8657013 44.0912022 20.8657013 41.2686134 23.1806131 38.9724322 26.0262265 38.9724322 28.87184 38.9724322 31.1867517 41.2686134 31.1867517 44.0912022 31.1867517 46.913791 28.87184 49.2099722 26.0262265 49.2099722M12.0428679 15.1949201C9.74793245 15.1949201 7.88115407 17.0465938 7.88115407 19.3229604 7.88115407 21.5993269 9.74793245 23.4510007 12.0428679 23.4510007 14.3378034 23.4510007 16.2045818 21.5993269 16.2045818 19.3229604 16.2045818 17.0465938 14.3378034 15.1949201 12.0428679 15.1949201M12.0428679 24.4417303C9.19725447 24.4417303 6.88234275 22.1455492 6.88234275 19.3229604 6.88234275 16.5003715 9.19725447 14.2041904 12.0428679 14.2041904 14.8884814 14.2041904 17.2033931 16.5003715 17.2033931 19.3229604 17.2033931 22.1455492 14.8884814 24.4417303 12.0428679 24.4417303M26.0262265 5.94810979C23.731291 5.94810979 21.8645127 7.79978354 21.8645127 10.0761501 21.8645127 12.3525166 23.731291 14.2041904 26.0262265 14.2041904 28.321162 14.2041904 30.1879404 12.3525166 30.1879404 10.0761501 30.1879404 7.79978354 28.321162 5.94810979 26.0262265 5.94810979M26.0262265 15.1949201C23.1806131 15.1949201 20.8657013 12.8987389 20.8657013 10.0761501 20.8657013 7.25356125 23.1806131 4.95738011 26.0262265 4.95738011 28.87184 4.95738011 31.1867517 7.25356125 31.1867517 10.0761501 31.1867517 12.8987389 28.87184 15.1949201 26.0262265 15.1949201"/>
      <path fill="#FFFFFF" d="M26.0566237,23.2587991 C23.8282756,25.4671356 23.3881328,30.2814213 23.344518,30.8223597 L23.3441851,30.8226899 C23.2666107,31.8074752 24.0939594,32.6274691 25.0864449,32.5501922 C25.6337936,32.5062699 30.4956742,32.062423 32.7113706,29.8663056 C34.1826197,28.4066305 34.9713477,26.6441224 35.0129649,25.0579642 L35.6928224,24.5315565 C38.9742506,21.9995817 40.4261893,20.9923399 45.7089024,15.7563335 C49.7084759,11.7897822 48.7882378,12.3274182 51.582246,8.8767067 C55.0700951,4.56604189 56.3086212,2.54792555 54.9562306,1.20647757 C53.5878591,-0.15280354 51.5529475,1.07570125 47.2064535,4.53103611 C43.720935,7.30309774 44.2616248,6.38799376 40.2647148,10.3499217 C34.9756759,15.5935236 33.9582201,17.0300817 31.4079218,20.2790145 L30.8542474,20.9797906 C29.2694668,21.0339505 27.5118918,21.8146455 26.0566237,23.2587991"/>
      <path fill="#9199AC" d="M53.6655333,1.33827764 C52.635093,1.33827764 50.9138081,2.43039199 47.6230578,5.04657881 C46.4687648,5.96432473 45.7472901,6.48511829 45.1676466,6.90353646 C43.9813917,7.75985714 43.3861001,8.18983382 40.7352548,10.8172489 C35.9093314,15.6014825 34.6388434,17.2262792 32.5333492,19.9184219 L31.1869515,21.6290818 L30.876987,21.6399799 C29.3977475,21.6905071 27.8123009,22.450727 26.5274966,23.7257961 L26.5271637,23.7261263 C24.4759382,25.7587734 24.0497787,30.3574102 24.0081615,30.8752316 C23.9861877,31.1503242 24.0870676,31.4217842 24.2844993,31.6176184 C24.482264,31.8134526 24.7559383,31.9148373 25.0342737,31.8917203 C26.9293517,31.7398084 30.5816718,31.0436557 32.2406974,29.3990444 C33.5404839,28.1091144 34.3085698,26.5206445 34.3475235,25.0408246 L34.355514,24.7294052 L36.0824587,23.3955528 C38.7952303,21.3107274 40.432615,20.0521704 45.2382292,15.2890724 C47.8940686,12.6550525 48.3285515,12.0645776 49.193855,10.8889117 C49.6156864,10.3159397 50.1403952,9.60261433 51.062964,8.46327521 C54.5664612,4.13345629 55.3658432,2.54696784 54.4852245,1.67347451 C54.265486,1.45518374 54.0024657,1.33827764 53.6655333,1.33827764 M24.9593629,33.2153351 C24.3540832,33.2153351 23.7737738,32.978881 23.3429532,32.5518765 C22.8695166,32.0822706 22.6281372,31.4333427 22.6804083,30.771205 C22.7556521,29.843882 23.248399,25.1088547 25.5856176,22.7918682 C25.5856176,22.7918682 25.5859505,22.7918682 25.5859505,22.791538 C27.0182459,21.3701711 28.7977948,20.4880915 30.5144185,20.3388216 L31.4812679,19.1089958 C33.6187241,16.3755726 34.9088554,14.7260077 39.7937087,9.88266058 C42.5181331,7.18226174 43.1806779,6.70406955 44.3839126,5.83552987 C44.9525692,5.42503754 45.6600606,4.91415128 46.7900491,4.01555946 C50.914474,0.736574488 53.5543324,-1.12170414 55.4274365,0.73987692 C57.2862244,2.58362484 55.4107897,5.20014191 52.1013948,9.29020424 C51.1981364,10.4060961 50.6830827,11.1055512 50.2695748,11.6676252 C49.3922856,12.8601335 48.9088609,13.516657 46.1797754,16.2233305 C41.3145654,21.0455421 39.6522104,22.3232531 36.8981547,24.4394517 L35.6616262,25.3938546 C35.5227915,27.1121101 34.6315188,28.8954235 33.1822436,30.3333025 C30.8520167,32.6433538 26.0740363,33.1334348 25.1401477,33.2084 C25.0795532,33.2133537 25.0192915,33.2153351 24.9593629,33.2153351"/>
      <path fill="#9199AC" d="M34.9868959,27.5506731 L34.0453497,26.6167452 C34.7844701,25.883275 34.3333403,24.1002919 33.0988095,22.8754198 C31.8209969,21.6082765 29.3635881,21.570959 28.6610908,22.2667815 L27.7195447,21.3328537 C29.0795928,19.9834798 32.3876559,20.3024948 34.0403557,21.9414919 C35.8295597,23.716219 36.2630438,26.2848508 34.9868959,27.5506731"/>
    </g>
    <path stroke="#9199AC" stroke-width="1.7" d="M37.8914345,17 C37.8914345,17 33.2556979,20.9089192 31,26.7556337" stroke-linecap="round"/>
    <path stroke="#9199AC" stroke-width="1.7" d="M38.1937942,8.38012294 C38.1937942,8.38012294 35.2897306,11.5713887 33.5806551,14.9105623" stroke-linecap="round" transform="rotate(11 35.887 11.645)"/>
  </g>
</svg>
