<svg xmlns="http://www.w3.org/2000/svg" viewBox="0 0 36.95 34.9"><defs><style>.cls-1,.cls-2{stroke:#000;stroke-miterlimit:10;}.cls-2{fill:none;}</style></defs><title>ceramic-small</title><g id="Layer_2" data-name="Layer 2"><g id="Layer_4" data-name="Layer 4"><path class="cls-1" d="M.5,29.62h36a0,0,0,0,1,0,0v2.23A2.55,2.55,0,0,1,33.9,34.4H3.05A2.55,2.55,0,0,1,.5,31.85V29.62a0,0,0,0,1,0,0Z"/><ellipse class="cls-1" cx="10.67" cy="1.52" rx="3.45" ry="1.02"/><path class="cls-2" d="M7.22,1.66s0,4.07,0,5.43c0,2-.2,5.28-2.28,7.75h0c-1.29,1.54-2.09,5.66-2.09,8,0,4.69,3.2,6.78,7.15,6.78h1.35c3.95,0,7.15-2.09,7.15-6.78,0-2.34-.8-6.47-2.09-8h0c-2.09-2.47-2.25-5.73-2.28-7.75,0-1.36,0-5.43,0-5.43"/><ellipse class="cls-1" cx="28.26" cy="20.8" rx="4.5" ry="0.8"/><path class="cls-2" d="M28.76,23.29"/><path class="cls-2" d="M32.76,20.6v6.23A2.56,2.56,0,0,1,30,29.61H26.54a2.56,2.56,0,0,1-2.78-2.78V20.6"/></g></g></svg>