<svg xmlns="http://www.w3.org/2000/svg" viewBox="0 0 29.12 35.87"><defs><style>.cls-1{fill:#010101;}</style></defs><title>art-small</title><g id="Layer_2" data-name="Layer 2"><g id="Layer_4" data-name="Layer 4"><path class="cls-1" d="M26.8,19.88H2V3.36A1.45,1.45,0,0,1,3.46,1.91H25.35A1.45,1.45,0,0,1,26.8,3.36ZM2.88,19H25.93V3.36a.59.59,0,0,0-.59-.59H3.46a.59.59,0,0,0-.59.59Z"/><path class="cls-1" d="M27.66,23H.86a.78.78,0,0,1-.78-.78V19.77A.78.78,0,0,1,.86,19H27.66a.78.78,0,0,1,.78.78v2.42A.78.78,0,0,1,27.66,23Z"/><path class="cls-1" d="M19.4,2.06V.89A.83.83,0,0,0,18.62,0H9.9a.83.83,0,0,0-.78.89V2.06Z"/><path class="cls-1" d="M5.37,21.81,0,35.26c-.23.57.69.82.92.25L6.28,22.06c.23-.57-.69-.82-.92-.25Z"/><path class="cls-1" d="M22.54,22.18l5.71,13.45c.24.56,1.06.08.82-.48L23.37,21.7c-.24-.56-1.06-.08-.82.48Z"/><rect class="cls-1" x="14.06" y="18.08" width="0.95" height="23.57" transform="translate(-15.39 44.27) rotate(-89.74)"/></g></g></svg>