<svg xmlns="http://www.w3.org/2000/svg" viewBox="0 0 32.96 33.38"><defs><style>.cls-1{fill:none;stroke:#000;stroke-miterlimit:10;}</style></defs><title>digital-small</title><g id="Layer_2" data-name="Layer 2"><g id="Layer_4" data-name="Layer 4"><path class="cls-1" d="M28.67,25.92H4.29A3.79,3.79,0,0,1,.5,22.14V4.29A3.79,3.79,0,0,1,4.29.5H28.67a3.79,3.79,0,0,1,3.79,3.79V22.14A3.79,3.79,0,0,1,28.67,25.92Z"/><path d="M26.72,19.83H6.24a2.77,2.77,0,0,1-2.77-2.77V6.37A2.77,2.77,0,0,1,6.24,3.6H26.72a2.77,2.77,0,0,1,2.77,2.77V17.06A2.77,2.77,0,0,1,26.72,19.83Z"/><path d="M16.48,23.63a1,1,0,1,1,1-1A1,1,0,0,1,16.48,23.63Z"/><path d="M21.54,29.44H11.42V25.92H21.54Z"/><path class="cls-1" d="M25.14,32.88H7.82a1.72,1.72,0,1,1,0-3.44H25.14a1.72,1.72,0,0,1,0,3.44Z"/></g></g></svg>