<svg xmlns="http://www.w3.org/2000/svg" viewBox="0 0 36.33 35.85"><defs><style>.cls-1,.cls-2{fill:#fff;}.cls-2{stroke:#000;stroke-miterlimit:10;}.cls-3{fill:#231f20;}</style></defs><title>textile-small</title><g id="Layer_2" data-name="Layer 2"><g id="Layer_4" data-name="Layer 4"><path d="M36.3,3.91A.53.53,0,0,0,36,3.6L29,.06a.53.53,0,0,0-.71.22,5.09,5.09,0,0,1-7.23,2,4.37,4.37,0,0,1-1.71-2,.53.53,0,0,0-.72-.24l-7,3.54a.53.53,0,0,0-.23.71l2.3,4.56a.53.53,0,0,0,.71.23l2-1a.41.41,0,0,1,.6.37V19a.53.53,0,0,0,.53.53H30.09a.53.53,0,0,0,.53-.53V8.45a.41.41,0,0,1,.6-.37l2,1A.53.53,0,0,0,34,8.88l2.3-4.56a.53.53,0,0,0,0-.4Z"/><path class="cls-1" d="M35.13,6.31l-1.05-.54c-.35-.18-.67.35-.31.54l1.05.54c.35.18.67-.35.31-.54Z"/><path class="cls-1" d="M32.93,5.18l-1.05-.54c-.35-.18-.67.35-.31.54l1.05.54c.35.18.67-.35.31-.54Z"/><path class="cls-1" d="M30.45,3.9,29.4,3.36c-.35-.18-.67.35-.31.54l1.05.54c.35.18.67-.35.31-.54Z"/><path class="cls-1" d="M12.9,6.92,14,6.38c.36-.18,0-.71-.31-.54l-1.09.54c-.36.18,0,.71.31.54Z"/><path class="cls-1" d="M15.18,5.79l1.09-.54c.36-.18,0-.71-.31-.54l-1.09.54c-.36.18,0,.71.31.54Z"/><path class="cls-1" d="M17.76,4.51,18.85,4c.36-.18,0-.71-.31-.54L17.45,4c-.36.18,0,.71.31.54Z"/><path class="cls-1" d="M17.3,18.17h1.34a.31.31,0,0,0,0-.62H17.3a.31.31,0,0,0,0,.62Z"/><path class="cls-1" d="M20.17,18.17H21.7a.31.31,0,0,0,0-.62H20.17a.31.31,0,0,0,0,.62Z"/><path class="cls-1" d="M23.23,18.17h1.53a.31.31,0,0,0,0-.62H23.22a.31.31,0,0,0,0,.62Z"/><path class="cls-1" d="M26.28,18.17h1.53a.31.31,0,0,0,0-.62H26.28a.31.31,0,0,0,0,.62Z"/><path class="cls-1" d="M29.34,18.17h1.09a.31.31,0,0,0,0-.62H29.34a.31.31,0,0,0,0,.62Z"/><path class="cls-2" d="M35.14,13.63a.74.74,0,0,0-.37-.43L25,8.29a.73.73,0,0,0-1,.31,7.07,7.07,0,0,1-10,2.79,6.07,6.07,0,0,1-2.38-2.76.74.74,0,0,0-1-.34L.9,13.2a.74.74,0,0,0-.33,1l3.2,6.34a.74.74,0,0,0,1,.33l2.83-1.43a.57.57,0,0,1,.83.51V34.61a.74.74,0,0,0,.74.74H26.52a.74.74,0,0,0,.74-.74V19.93a.57.57,0,0,1,.83-.51l2.83,1.43a.74.74,0,0,0,1-.33l3.2-6.34a.74.74,0,0,0,0-.56Z"/><path class="cls-3" d="M33.51,17l-1.46-.75c-.49-.25-.93.49-.43.74l1.46.75c.49.25.93-.49.43-.74Z"/><path class="cls-3" d="M30.45,15.4,29,14.65c-.49-.25-.93.49-.43.74l1.46.75c.49.25.93-.49.43-.74Z"/><path class="cls-3" d="M27,13.62l-1.46-.75c-.49-.25-.93.49-.43.74l1.46.75c.49.25.93-.49.43-.74Z"/><path class="cls-3" d="M2.66,17.81l1.51-.75c.5-.25.06-1-.43-.74l-1.51.75c-.5.25-.06,1,.43.74Z"/><path class="cls-3" d="M5.83,16.24l1.51-.75c.5-.25.06-1-.43-.74l-1.51.75c-.5.25-.06,1,.43.74Z"/><path class="cls-3" d="M9.4,14.47l1.51-.75c.5-.25.06-1-.43-.74L9,13.72c-.5.25-.06,1,.43.74Z"/><path class="cls-3" d="M8.76,33.42h1.86a.43.43,0,0,0,0-.86H8.76a.43.43,0,0,0,0,.86Z"/><path class="cls-3" d="M12.75,33.42h2.12a.43.43,0,0,0,0-.86H12.74a.43.43,0,0,0,0,.86Z"/><path class="cls-3" d="M17,33.42h2.12a.43.43,0,0,0,0-.86H17a.43.43,0,0,0,0,.86Z"/><path class="cls-3" d="M21.23,33.42h2.12a.43.43,0,0,0,0-.86H21.23a.43.43,0,0,0,0,.86Z"/><path class="cls-3" d="M25.48,33.42H27a.43.43,0,0,0,0-.86H25.48a.43.43,0,0,0,0,.86Z"/></g></g></svg>